<svg xmlns="http://www.w3.org/2000/svg" version="1.1" xmlns:xlink="http://www.w3.org/1999/xlink" width="512" height="512"><svg xmlns="http://www.w3.org/2000/svg" data-name="Capa 1" viewBox="0 0 512 512">
  <rect width="512" height="512" fill="#fff" rx="72.8" ry="72.8"></rect>
  <path fill="#4c5dab" d="m203 350 44-1c1 0 3 0 5-2l83-86c3-3 3-7 0-10l-83-86-4-2h-47c-7 2-8 10-4 15l77 78-77 77c-4 7-2 15 6 17Z" class="cls-2"></path>
  <path fill="#4c5dab" d="M460 147A229 229 0 0 0 265 40H34c-7 0-12 6-12 13v55c0 7 5 12 12 12h13c7 0 13 6 13 12v15c0 2 1 3 3 3h66c2 0 4-1 4-3v-15c0-6 5-12 12-12h123a140 140 0 0 1 120 66c12 21 18 44 18 70s-6 49-18 70-29 37-50 48c-20 12-44 18-70 18l-123-1c-7 0-12-5-12-12V166c0-1-2-3-4-3H63c-2 0-3 1-3 3v213c0 6-6 12-13 12H34c-7 0-12 5-12 12v56c0 7 5 13 12 13h232a229 229 0 0 0 194-106c20-33 30-70 30-110s-10-77-30-109ZM107 386c0 2-2 4-4 4H90c-2 0-3-2-3-4V216c0-2 1-3 3-3h13c2 0 4 1 4 3v170Z" class="cls-2"></path>
</svg><style>@media (prefers-color-scheme: light) { :root { filter: none; } }
@media (prefers-color-scheme: dark) { :root { filter: none; } }
</style></svg>